<?xml version="1.0" encoding="UTF-8"?>
<svg width="1350px" height="500px" viewBox="0 0 1350 500" version="1.1" xmlns="http://www.w3.org/2000/svg" xmlns:xlink="http://www.w3.org/1999/xlink">
    <!-- Generator: Sketch 42 (36781) - http://www.bohemiancoding.com/sketch -->
    <title>Group</title>
    <desc>Created with Sketch.</desc>
    <defs></defs>
    <g id="Page-1" stroke="none" stroke-width="1" fill="none" fill-rule="evenodd">
        <g id="Group" transform="translate(0.000000, -1.000000)" fill-rule="nonzero" fill="#24D8B9">
            <path d="M196.687,247.054 L192.345,242.695 C189.069,239.422 183.434,241.74 183.434,246.383 L183.434,308.637 C183.434,311.515 185.789,313.851 188.675,313.851 L250.94,313.851 C255.579,313.851 257.924,308.227 254.619,304.95 C252.58881,302.913551 252.58881,299.618449 254.619,297.582 L320.851,231.17 C322.884,229.14 322.884,225.843 320.851,223.798 L314.818,217.787 C311.54,214.514 313.877,208.889 318.506,208.889 L380.737,208.889 C383.614,208.889 385.967,211.226 385.967,214.104 L385.967,276.361 C385.967,280.999 380.317,283.327 377.039,280.049 L372.836,275.855 C370.776,273.763 367.498,273.763 365.477,275.855 L253.823,387.461 C251.794,389.484 248.497,389.484 246.44,387.461 L109.835,250.849 C108.849171,249.871126 108.294664,248.54006 108.294664,247.1515 C108.294664,245.76294 108.849171,244.431874 109.835,243.454 L298.947,54.347 C300.97,52.312 300.97,48.991 298.947,46.963 L254.479,2.498 C252.434597,0.471966134 249.139403,0.471966134 247.095,2.498 L2.298,247.322 C0.269,249.358 0.269,252.679 2.298,254.706 L247.095,499.503 C249.125,501.526 252.456,501.526 254.479,499.503 L499.267,254.706 C501.289,252.671 501.289,249.367 499.267,247.338 L355.25,103.319 C353.236,101.293 349.923,101.293 347.882,103.319 L204.081,247.056 C203.103601,248.041958 201.772816,248.596588 200.3845,248.596588 C198.996184,248.596588 197.665399,248.041958 196.688,247.056 L196.687,247.054 L196.687,247.054 Z M1326.676,308.995 C1320.365,308.995 1314.92,311.257 1310.356,315.804 C1305.85,320.355 1303.549,325.728 1303.549,331.949 C1303.549,341.433 1308.36,348.81 1317.914,354.081 C1328.394,356.942 1336.816,355.08 1343.156,348.594 C1347.738,344.015 1349.994,338.525 1349.994,332.128 C1349.994,325.653 1347.738,320.24 1343.156,315.806 C1338.611,311.287 1333.15,309.029 1326.662,309.029 L1326.676,309.001 L1326.676,308.995 L1326.676,308.995 Z M954.684,133.03 L937.424,133.03 C929.969,133.03 923.906,139.048 923.906,146.503 L923.906,156.13 C905.547,137.036 884.758,127.484 861.541,127.484 C834.728,127.484 812.355,137.462 794.516,157.363 C776.626,177.264 767.717,202.14 767.717,232.007 C767.717,262.385 776.626,287.746 794.464,308.072 C812.5,327.983 835.242,337.936 862.789,337.936 C884.574,337.936 904.961,329.041 923.908,311.297 L923.908,330.331 C923.908,339.577 931.424,347.092 940.656,347.092 L970.125,347.092 L970.125,148.456 C970.125,139.958 963.198,133.03 954.684,133.03 L954.684,133.03 Z M911.065,279.219 C900.563,290.947 886.813,296.802 869.758,296.802 C853.783,296.802 840.549,290.74 830.084,278.616 C819.835,266.639 814.725,251.054 814.725,231.977 C814.725,214.131 819.984,199.101 830.475,186.982 C841.102,174.974 854.329,169.003 870.151,169.003 C886.924,169.003 900.538,174.919 911.04,186.834 C921.546,198.956 926.798,214.337 926.798,233.02 C926.798,251.704 921.546,267.083 911.04,279.235 L911.069,279.22 L911.065,279.219 Z M767.701,166.64 L767.701,146.945 C767.701,139.257 761.479,133.064 753.787,133.064 L735.598,133.064 C727.935,133.064 721.7,139.228 721.7,146.945 L721.7,155.548 C705.064,136.852 684.206,127.487 659.122,127.487 C630.494,127.487 607.427,138.288 589.989,159.802 C573.76,180.085 565.651,204.785 565.651,233.828 C565.651,263.68 574.395,288.586 591.854,308.471 C609.17,328.152 631.384,337.911 658.52,337.911 C682.35,337.911 703.428,328.608 721.699,309.923 L721.699,337.736 C721.699,379.063 704.868,399.727 671.203,399.727 C652.927,399.727 639.044,393.505 629.503,381.09 C627.07,377.948 625.05,374.016 623.443,369.319 C621.188,362.744 614.936,358.371 608.008,358.371 L590.572,358.371 C581.779,358.371 575.244,366.736 577.468,375.248 C582.237,393.357 591.445,408.092 605.155,419.495 C622.33,433.822 644.226,441 670.792,441 C702.279,441 727.029,430.609 745.038,409.915 C754.579,399.143 760.962,386.257 764.243,371.259 C765.337,365.829 766.193,359.506 766.796,352.328 C767.397,345.195 767.695,336.916 767.695,327.496 L767.695,298.555 C754.82,279.989 748.34,257.813 748.34,231.985 C748.34,206.609 754.807,184.874 767.695,166.661 L767.695,166.646 L767.701,166.64 L767.701,166.64 Z M709.422,277.649 C699.202,290.417 685.317,296.8 667.706,296.8 C650.118,296.8 636.352,290.457 626.38,277.765 C617.265,266.202 612.699,251.318 612.699,233.209 C612.699,214.79 617.263,199.792 626.38,188.214 C636.493,175.283 650.244,168.814 667.706,168.814 C684.057,168.814 697.492,174.74 707.977,186.585 C718.343,198.165 723.545,213.637 723.545,233.023 C723.545,251.147 718.827,265.999 709.42,277.622 L709.42,277.653 L709.422,277.649 Z M1150.196,133.177 L1150.196,133.031 L1054.772,133.031 L1054.772,74.605 C1054.772,67.092 1048.698,61.001 1041.168,61.001 L1022.541,61.001 C1014.939,61.001 1008.773,67.165 1008.773,74.768 L1008.773,133.032 L989.127,133.032 L989.127,175.945 L1008.748,175.945 L1008.748,347.067 L1034.986,347.067 C1040.22913,347.078447 1045.26085,345.000894 1048.96859,341.293716 C1052.67633,337.586537 1054.75465,332.55513 1054.744,327.312 L1054.744,175.973 L1101.928,175.973 C1105.62797,168.868391 1110.19776,162.251876 1115.532,156.276 C1125.307,145.622 1136.87,137.902 1150.167,133.177 L1150.198,133.177 L1150.196,133.177 L1150.196,133.177 Z" id="Shape"></path>
            <path d="M1167.338,297.226 C1157.854,287.626 1152.559,274.536 1151.338,258.187 L1283.217,258.187 C1289.235,258.187 1294.197,253.373 1294.283,247.371 C1294.283,214.453 1285.828,188.798 1268.937,170.245 C1251.871,151.581 1228.679,142.245 1199.386,142.245 C1170.386,142.245 1147.054,151.872 1129.474,171.07 C1112.009,190.588 1103.29,216.064 1103.29,247.56 C1103.29,279.321 1112.302,304.826 1130.265,324.025 C1142.826,337.379 1158.224,346.036 1176.494,350.073 C1184.156,351.876 1192.111,352.815 1200.137,352.697 C1232.908,353.374 1261.393,354.048 1294.151,354.724 L1294.198,349.924 C1290.188,345.567 1288.178,340.313 1288.178,334.176 C1288.178,328.219 1290.278,323.097 1294.367,318.666 L1294.398,312.839 C1268.539,312.193 1205.933,311.576 1203.439,311.576 C1188.763,311.576 1176.697,306.836 1167.337,297.254 L1167.337,297.226 L1167.338,297.226 L1167.338,297.226 Z M1160.936,205.237 C1163.831,200.745 1167.25,196.9 1171.286,193.701 C1175.321,190.458 1179.755,188.035 1184.686,186.334 C1189.586,184.631 1194.84,183.779 1200.444,183.779 C1224.956,183.779 1240.424,196.034 1246.88,220.559 L1154.409,220.559 C1155.917,214.848 1158.091,209.741 1160.936,205.235 L1160.936,205.237 L1160.936,205.237 Z" id="Shape"></path>
        </g>
    </g>
</svg>